<?xml version="1.0" standalone="no"?>
<!DOCTYPE svg PUBLIC "-//W3C//DTD SVG 20010904//EN"
 "http://www.w3.org/TR/2001/REC-SVG-20010904/DTD/svg10.dtd">
<svg version="1.0" xmlns="http://www.w3.org/2000/svg"
 width="620.000000pt" height="620.000000pt" viewBox="0 0 620.000000 620.000000"
 preserveAspectRatio="xMidYMid meet">
<metadata>
Created by potrace 1.11, written by Peter Selinger 2001-2013
</metadata>
<g transform="translate(0.000000,620.000000) scale(0.100000,-0.100000)"
fill="#000000" stroke="none">
<path d="M2527 4196 c-312 -502 -567 -919 -567 -925 0 -8 301 -11 1140 -11
839 0 1140 3 1140 11 0 15 -1131 1839 -1140 1839 -4 0 -262 -411 -573 -914z
m318 -299 l79 -232 75 233 c74 228 76 232 103 232 27 0 29 -4 100 -225 40
-124 75 -225 79 -225 3 0 39 100 81 223 l75 222 32 3 c17 2 31 0 31 -3 0 -4
-44 -130 -97 -281 -93 -262 -98 -274 -123 -274 -24 0 -29 11 -100 220 -41 121
-77 220 -80 220 -3 0 -38 -99 -79 -220 -71 -210 -76 -220 -100 -220 -25 0 -30
12 -120 268 -52 147 -96 273 -99 280 -3 8 7 12 29 12 l34 0 80 -233z"/>
<path d="M3900 2048 c-300 -484 -549 -886 -553 -894 -7 -12 155 -14 1103 -14
610 0 1110 3 1110 8 0 12 -1097 1776 -1106 1779 -5 1 -254 -394 -554 -879z
m790 47 l0 -25 -167 -2 -168 -3 -3 -97 -3 -98 151 0 150 0 0 -30 0 -30 -150 0
-150 0 0 -120 0 -120 -30 0 -30 0 0 275 0 275 200 0 200 0 0 -25z"/>
<path d="M1187 2034 c-302 -487 -547 -887 -545 -890 3 -2 500 -3 1105 -2
l1101 3 -548 885 c-302 487 -553 886 -557 887 -4 1 -255 -396 -556 -883z m693
-183 c66 -145 120 -268 120 -273 0 -5 -14 -8 -31 -6 -27 3 -34 10 -59 68 l-29
65 -154 3 -154 2 -32 -70 c-29 -65 -33 -70 -62 -70 -17 0 -29 4 -27 9 2 6 57
130 123 276 l120 266 33 -3 c32 -3 33 -4 152 -267z"/>
<path d="M1662 1913 l-61 -138 121 -3 c66 -1 122 -1 124 1 4 3 -111 266 -120
274 -1 2 -30 -59 -64 -134z"/>
<path d="M2874 2586 c-3 -8 -4 -29 -2 -48 l3 -33 88 -3 87 -3 0 -229 0 -230
50 0 50 0 0 230 0 229 88 3 87 3 0 45 0 45 -223 3 c-185 2 -223 0 -228 -12z"/>
</g>
</svg>
